<?xml version="1.0" encoding="UTF-8" standalone="no"?>
<!-- Created with Inkscape (http://www.inkscape.org/) -->

<svg
   xmlns:dc="http://purl.org/dc/elements/1.1/"
   xmlns:cc="http://creativecommons.org/ns#"
   xmlns:rdf="http://www.w3.org/1999/02/22-rdf-syntax-ns#"
   xmlns:svg="http://www.w3.org/2000/svg"
   xmlns="http://www.w3.org/2000/svg"
   xmlns:sodipodi="http://sodipodi.sourceforge.net/DTD/sodipodi-0.dtd"
   xmlns:inkscape="http://www.inkscape.org/namespaces/inkscape"
   width="122.3355mm"
   height="42.052681mm"
   viewBox="0 0 122.3355 42.052681"
   version="1.1"
   id="svg8"
   inkscape:version="0.92.3 (2405546, 2018-03-11)"
   sodipodi:docname="player_hud_right.svg">
  <defs
     id="defs2" />
  <sodipodi:namedview
     id="base"
     pagecolor="#ffffff"
     bordercolor="#666666"
     borderopacity="1.0"
     inkscape:pageopacity="0.0"
     inkscape:pageshadow="2"
     inkscape:zoom="1.465625"
     inkscape:cx="172.5943"
     inkscape:cy="57.861008"
     inkscape:document-units="mm"
     inkscape:current-layer="layer1"
     showgrid="false"
     fit-margin-top="0"
     fit-margin-left="0"
     fit-margin-right="0"
     fit-margin-bottom="0"
     inkscape:window-width="1366"
     inkscape:window-height="705"
     inkscape:window-x="-8"
     inkscape:window-y="-8"
     inkscape:window-maximized="1" />
  <metadata
     id="metadata5">
    <rdf:RDF>
      <cc:Work
         rdf:about="">
        <dc:format>image/svg+xml</dc:format>
        <dc:type
           rdf:resource="http://purl.org/dc/dcmitype/StillImage" />
        <dc:title></dc:title>
      </cc:Work>
    </rdf:RDF>
  </metadata>
  <g
     inkscape:label="Layer 1"
     inkscape:groupmode="layer"
     id="layer1"
     transform="translate(19.182288,-154.69064)">
    <g
       id="g843"
       transform="translate(-7.5595238,87.690476)">
      <path
         style="fill:#676767;stroke-width:0.26458332"
         d="m -11.292035,108.89501 c -0.260662,-0.10518 -0.330729,-4.55702 -0.330729,-21.013488 V 67.001488 h 24.710233 c 26.817608,0 25.031432,-0.09594 25.031432,1.344556 0,0.497815 0.685652,0.507527 35.832141,0.507527 40.510718,0 36.663688,-0.235977 36.663688,2.248958 0,2.461492 2.31418,2.248959 -24.487814,2.248959 H 62.470648 l -0.16224,0.64642 c -0.247394,0.985691 0.05296,1.205663 1.646237,1.205663 h 1.462852 l -0.178805,1.058333 -0.178805,1.058334 h 6.720374 6.720374 l 0.586846,-0.79375 0.586843,-0.79375 h 15.07333 c 13.371676,0 15.073326,0.04583 15.073326,0.405937 0,0.42769 -3.24296,6.275196 -3.92013,7.068542 -0.35439,0.415187 -1.00174,0.46302 -6.266326,0.46302 -5.351817,0 -5.909841,0.0428 -6.308992,0.483855 -0.240837,0.26612 -0.437882,0.682838 -0.437882,0.926041 0,0.394176 0.445283,0.442188 4.101041,0.442188 4.671719,0 4.624979,-0.02877 3.400869,2.093421 -0.3851,0.667629 -0.751824,1.273402 -0.814943,1.346162 -0.06312,0.07276 -2.157034,0.191823 -4.653147,0.264583 l -4.538393,0.132292 -2.681718,4.725411 c -1.474944,2.598975 -2.846181,4.829574 -3.047193,4.956886 -0.406496,0.257456 -70.319782,0.335238 -70.987583,0.07898 -0.611721,-0.234738 -0.511727,-0.7758 0.233635,-1.264179 0.591791,-0.387757 3.805825,-0.427349 34.726562,-0.427778 l 34.074411,-5.29e-4 0.701107,-1.124006 c 1.680868,-2.694702 9.749935,-16.858031 9.749935,-17.113641 0,-0.198355 -9.451604,-0.278757 -31.816145,-0.270648 l -31.816145,0.01154 -8.466667,9.553264 c -4.656666,5.25429 -10.471464,11.827301 -12.9217738,14.606691 -2.4503093,2.77938 -4.6959211,5.26178 -4.9902489,5.51645 -0.4811165,0.41627 -1.2199853,0.46091 -7.3188503,0.44213 -3.73104,-0.0115 -6.932537,-0.0809 -7.114438,-0.15434 z m 4.5640622,-3.39665 c 0,-0.66911 -0.1032963,-0.79375 -0.6578349,-0.79375 -0.4242458,0 -0.6905548,0.1699 -0.7499807,0.47848 -0.1545833,0.80268 0.1728121,1.28439 0.8113202,1.19373 0.467561,-0.0664 0.5964954,-0.25628 0.5964954,-0.87846 z M 6.9163851,99.228507 C 14.346441,91.08639 27.951517,76.104233 30.190797,73.5983 c 3.23892,-3.624611 3.976557,-4.568776 3.747976,-4.797358 -0.118944,-0.118944 -7.174495,-0.185526 -15.679004,-0.147962 l -15.4627421,0.0683 -0.1322916,1.647908 -0.1322917,1.647908 -2.23002839,2.24154 c -1.85981181,1.86941 -2.38690721,2.254703 -3.17499991,2.320841 l -0.9449715,0.0793 -0.073282,13.361458 c -0.040305,7.348802 -0.00827,13.629355 0.071187,13.956775 0.1387377,0.57169 0.2578282,0.59531 3.00201531,0.59531 H 2.0399104 Z M 56.78132,74.92395 c 0.09505,-0.153792 0.09981,-0.57051 0.01058,-0.926042 l -0.162251,-0.64642 H 45.636832 34.644012 L 33.7382,74.042383 c -0.498194,0.379992 -0.840412,0.796711 -0.760481,0.926041 0.215765,0.349115 23.587336,0.305448 23.803601,-0.04447 z m 2.116667,0 c 0.274061,-0.44344 -0.112554,-1.572462 -0.538462,-1.572462 -0.425907,0 -0.812522,1.129022 -0.538461,1.572462 0.09505,0.153791 0.337357,0.279621 0.538461,0.279621 0.201105,0 0.443413,-0.12583 0.538462,-0.279621 z m 2.38125,0 c 0.09505,-0.153792 0.09981,-0.57051 0.01058,-0.926042 -0.218834,-0.871905 -1.143817,-0.871905 -1.362652,0 -0.200474,0.798709 0.0295,1.205663 0.681316,1.205663 0.273865,0 0.575704,-0.12583 0.670753,-0.279621 z M -5.9342228,71.102529 c 0,-0.669112 -0.1032963,-0.79375 -0.6578349,-0.79375 -0.4242459,0 -0.6905548,0.169901 -0.7499807,0.478476 -0.1545834,0.802686 0.172812,1.284396 0.8113201,1.193727 0.4675611,-0.06639 0.5964955,-0.256274 0.5964955,-0.878453 z"
         id="path847"
         inkscape:connector-curvature="0" />
      <path
         style="fill:#0e0e0e;stroke-width:0.26458332"
         d="m -11.297003,102.5218 0.07111,-6.019271 h 3.4395829 3.4395832 l 0.073333,4.089871 c 0.05138,2.86552 0.170189,4.1514 0.396875,4.29543 0.4607403,0.29272 5.4252795,0.26312 5.9835969,-0.0357 0.2562404,-0.13714 2.1601852,-2.10167 4.2309884,-4.36563 l 3.7650966,-4.116283 h 1.572451 c 0.864848,0 1.57245,0.07128 1.57245,0.158409 0,0.08712 -1.818688,2.200481 -4.0415293,4.696354 -2.2228413,2.49587 -4.5743256,5.16297 -5.2255207,5.92688 l -1.1839914,1.38893 -7.0825712,1.3e-4 -7.0825714,1.3e-4 z m 4.7466341,3.99389 c 0.6017242,-0.54455 0.6204339,-1.35391 0.045972,-1.98868 -0.5433444,-0.60039 -1.0952131,-0.61511 -1.7240967,-0.046 -0.6017241,0.54455 -0.6204339,1.3539 -0.045972,1.98868 0.5433443,0.60039 1.095213,0.6151 1.7240967,0.046 z M 14.107636,98.421726 c 0.08771,-0.263136 7.198259,-0.345574 34.400891,-0.398832 l 34.290333,-0.06714 0.564494,-0.79276 c 0.439322,-0.616972 0.765844,-0.792761 1.47252,-0.792761 1.071345,0 1.106389,0.156557 0.302183,1.349936 l -0.605846,0.899023 -35.267568,0.06711 C 21.089598,98.739925 14.01931,98.686839 14.107636,98.421726 Z M -11.181792,73.968849 c -0.09701,-0.09701 -0.176389,-1.645447 -0.176389,-3.440961 v -3.264572 l 24.407812,0.06752 24.407812,0.06752 0.132291,0.926041 0.132292,0.926042 36.18177,0.06709 36.181774,0.06709 v 1.718851 1.71885 H 86.153922 c -21.720839,0 -23.95366,0.03934 -24.169954,0.425836 -0.219033,0.391392 -0.251526,0.391392 -0.401717,0 -0.216191,-0.56338 -1.66425,-0.56338 -1.979533,0 -0.219033,0.391392 -0.251526,0.391392 -0.401717,0 -0.211577,-0.551356 -1.406395,-0.551356 -1.71495,0 -0.219032,0.391392 -0.251526,0.391392 -0.401717,0 C 56.937692,72.866016 55.768289,72.82232 45.68813,72.82232 H 34.455335 l -0.786099,0.661458 c -0.559162,0.470504 -1.099695,0.661459 -1.872384,0.661459 -0.597456,0 -1.086284,-0.120097 -1.086284,-0.266882 0,-0.146785 0.62684,-0.950457 1.392978,-1.785938 0.766138,-0.83548 1.670222,-1.910234 2.009079,-2.388342 1.221174,-1.723016 1.959483,-1.644255 -15.413397,-1.644255 -17.91897557,0 -16.5636594,-0.188415 -16.5636594,2.302671 0,1.384211 -0.068284,1.539407 -1.15581134,2.626934 l -1.15581136,1.155812 h -5.4146745 c -2.9780711,0 -5.4940494,-0.07938 -5.5910634,-0.176388 z m 5.4251731,-1.848994 c 0.6017241,-0.544552 0.6204339,-1.353907 0.045972,-1.98868 -0.5433444,-0.600388 -1.0952131,-0.615104 -1.7240967,-0.04597 -0.6017241,0.544553 -0.6204339,1.353907 -0.045972,1.98868 0.5433444,0.600389 1.0952131,0.615104 1.7240967,0.04597 z"
         id="path845"
         inkscape:connector-curvature="0" />
    </g>
  </g>
</svg>
